<?xml version="1.0" standalone="no"?>
<!DOCTYPE svg PUBLIC "-//W3C//DTD SVG 20010904//EN"
 "http://www.w3.org/TR/2001/REC-SVG-20010904/DTD/svg10.dtd">
<svg version="1.0" xmlns="http://www.w3.org/2000/svg"
 width="612.000000pt" height="612.000000pt" viewBox="0 0 612.000000 612.000000"
 preserveAspectRatio="xMidYMid meet">

<g transform="translate(0.000000,612.000000) scale(0.100000,-0.100000)" fill="white" stroke="none">
<path d="M2859 5025 c-474 -90 -836 -427 -950 -886 -92 -370 1 -760 253 -1058
72 -85 195 -189 288 -242 33 -19 60 -37 60 -41 0 -4 -12 -11 -27 -14 -54 -14
-239 -95 -318 -141 -294 -169 -545 -421 -706 -710 -105 -191 -187 -440 -211
-645 -10 -86 -10 -102 5 -133 40 -83 151 -100 213 -32 18 20 35 50 38 69 35
247 78 393 167 567 166 326 452 590 791 731 906 376 1930 -170 2129 -1134 10
-50 19 -106 19 -124 0 -145 176 -208 251 -89 18 28 20 42 14 112 -26 337 -200
728 -451 1009 -196 221 -462 403 -721 496 -51 18 -93 35 -93 39 0 3 27 21 60
40 153 87 306 241 407 407 258 424 216 975 -103 1365 -164 200 -408 348 -669
406 -99 22 -350 26 -446 8z m451 -285 c436 -127 722 -562 660 -1005 -51 -365
-307 -660 -665 -766 -108 -32 -321 -37 -443 -10 -336 74 -602 332 -694 672
-32 120 -32 327 1 449 91 340 358 599 697 674 103 23 344 15 444 -14z"/>
</g>
</svg>
